<?xml version="1.0" standalone="no"?><!DOCTYPE svg PUBLIC "-//W3C//DTD SVG 1.1//EN" "http://www.w3.org/Graphics/SVG/1.1/DTD/svg11.dtd"><svg t="1595314324873" class="icon" viewBox="0 0 1024 1024" version="1.1" xmlns="http://www.w3.org/2000/svg" p-id="5637" xmlns:xlink="http://www.w3.org/1999/xlink" width="512" height="512"><defs><style type="text/css"></style></defs><path d="M1024 619.52c0-143.36-138.24-256-307.2-256s-307.2 112.64-307.2 256 138.24 256 307.2 256c30.72 0 61.44-5.12 92.16-10.24l97.28 51.2-25.6-76.8c87.04-51.2 143.36-128 143.36-220.16z m-414.72-40.96c-30.72 0-51.2-20.48-51.2-51.2s20.48-51.2 51.2-51.2 51.2 20.48 51.2 51.2c0 25.6-25.6 51.2-51.2 51.2z m209.92 0c-30.72 0-51.2-20.48-51.2-51.2s20.48-51.2 51.2-51.2 51.2 20.48 51.2 51.2c0 25.6-25.6 51.2-51.2 51.2z" fill="#4CBF00" p-id="5638"></path><path d="M358.4 609.28c0-158.72 153.6-286.72 348.16-286.72h15.36c-40.96-133.12-179.2-235.52-353.28-235.52-204.8 0-368.64 138.24-368.64 307.2 0 107.52 66.56 204.8 168.96 256l-30.72 92.16L256 686.08c35.84 10.24 71.68 15.36 112.64 15.36h10.24c-15.36-30.72-20.48-61.44-20.48-92.16z m138.24-414.72c35.84 0 66.56 30.72 66.56 66.56s-30.72 66.56-66.56 66.56C460.8 322.56 430.08 291.84 430.08 256S460.8 194.56 496.64 194.56zM245.76 322.56c-35.84 0-61.44-30.72-61.44-66.56s30.72-66.56 66.56-66.56 61.44 30.72 61.44 66.56-30.72 66.56-66.56 66.56z" fill="#4CBF00" p-id="5639"></path></svg>